#!OML:ASF I:\Actors\actors\Patient Classification 1\Patient 1\Session 1\Subject1.ASF
:FULLY-SPECIFIED
:DEGREES
442
root -1.70271 17.6061 7.14951 9.63548 9.65261 -10.2428
lowerback 13.5984 0.59292 5.50416
upperback -7.26364 2.40758 3.09374
thorax -15.8688 0.75706 -0.238773
lowerneck -14.7253 -7.54926 -3.95459
upperneck 23.4411 -12.6839 11.3806
head 11.0522 -4.85185 2.93316
rclavicle 7.647e-015 -4.04527e-014
rhumerus 12.7926 26.6062 -95.9231
rradius 52.0807
rwrist -12.0946
rhand -11.1678 -65.8307
rfingers 7.12502
rthumb 14.8588 95.2779
lclavicle 7.647e-015 -4.04527e-014
lhumerus 7.2988 -18.4495 100.566
lradius 52.6804
lwrist 49.163
lhand -46.5475 3.78952
lfingers 7.12502
lthumb -19.2723 32.8546
rfemur -9.40473 16.9444 30.741
rtibia 5.81775
rfoot -10.3527 -17.2664
rtoes 0.277725
lfemur -14.1178 -23.2207 3.81076
ltibia 6.30549
lfoot -5.88163 25.3128
ltoes -15.1916
443
root -1.76885 17.6002 7.16715 8.98692 10.1732 -10.1916
lowerback 13.0787 0.574808 5.57428
upperback -7.37217 2.33376 2.91186
thorax -15.66 0.707125 -0.456496
lowerneck -14.4903 -7.64561 -4.08288
upperneck 24.3592 -12.8907 11.2743
head 11.3706 -4.9371 2.90305
rclavicle 8.71547e-015 -1.07344e-014
rhumerus 15.288 27.3507 -94.4137
rradius 53.2904
rwrist -11.3491
rhand -11.1552 -65.6029
rfingers 7.12502
rthumb 14.871 95.0492
lclavicle 8.71547e-015 -1.07344e-014
lhumerus 8.94253 -18.7786 99.6072
lradius 54.9118
lwrist 49.231
lhand -46.48 3.32949
lfingers 7.12502
lthumb -19.2073 32.401
rfemur -8.71297 16.4473 31.1842
rtibia 5.91836
rfoot -10.5851 -17.3722
rtoes 0.68467
lfemur -13.7733 -22.8061 3.71716
ltibia 6.56957
lfoot -5.88178 24.3945
ltoes -15.315
444
root -1.8316 17.594 7.18675 8.38589 10.6751 -10.149
lowerback 12.5159 0.555507 5.70164
upperback -7.45091 2.25841 2.69376
thorax -15.3849 0.650032 -0.746158
lowerneck -14.3275 -7.75282 -4.23065
upperneck 25.2851 -13.1502 11.3031
head 11.7314 -5.02868 2.91544
rclavicle 3.79477e-015 3.06128e-014
rhumerus 17.9826 28.1311 -92.7668
rradius 54.5225
rwrist -10.7824
rhand -11.3741 -65.3775
rfingers 7.12502
rthumb 14.6601 94.8392
lclavicle 3.79477e-015 3.06128e-014
lhumerus 10.6808 -19.0341 98.568
lradius 57.2212
lwrist 49.2847
lhand -46.5215 2.71691
lfingers 7.12502
lthumb -19.2472 31.7845
rfemur -8.06783 15.9818 31.5963
rtibia 6.0132
rfoot -10.8503 -17.4828
rtoes 1.17742
lfemur -13.4481 -22.4707 3.63805
ltibia 6.80295
lfoot -5.92897 23.5936
ltoes -15.3021
445
root -1.89006 17.5873 7.20862 7.84468 11.1553 -10.1075
lowerback 11.9751 0.525861 5.90247
upperback -7.54662 2.17868 2.42686
thorax -15.1425 0.579329 -1.13004
lowerneck -14.0845 -7.86083 -4.30802
upperneck 26.0099 -13.4069 11.3422
head 11.9997 -5.12352 2.92107
rclavicle -3.2756e-014 1.31198e-014
rhumerus 20.8273 28.9739 -90.997
rradius 55.7715
rwrist -10.4615
rhand -11.9403 -65.101
rfingers 7.12502
rthumb 14.1146 94.6016
lclavicle -3.2756e-014 1.31198e-014
lhumerus 12.3933 -19.1826 97.4756
lradius 59.6103
lwrist 49.2905
lhand -46.5903 1.89326
lfingers 7.12502
lthumb -19.3134 30.9542
rfemur -7.47551 15.5462 31.9639
rtibia 6.09478
rfoot -11.1327 -17.5908
rtoes 1.71617
lfemur -13.165 -22.1703 3.55167
ltibia 7.03924
lfoot -6.03498 22.8961
ltoes -15.2569
446
root -1.94316 17.5806 7.2331 7.36523 11.6121 -10.0615
lowerback 11.6221 0.512189 5.89412
upperback -7.755 2.12535 2.30073
thorax -15.1681 0.544299 -1.24661
lowerneck -13.7591 -7.97688 -4.51659
upperneck 26.7233 -13.6261 11.3249
head 12.2514 -5.2253 2.937
rclavicle 8.57259e-016 2.06736e-014
rhumerus 23.5151 29.8158 -89.1435
rradius 57.0463
rwrist -9.9773
rhand -12.5174 -64.7229
rfingers 7.12502
rthumb 13.5583 94.2615
lclavicle 8.57259e-016 2.06736e-014
lhumerus 13.8458 -19.0381 96.6986
lradius 62.1192
lwrist 49.1998
lhand -46.6488 0.888587
lfingers 7.12502
lthumb -19.3696 29.9439
rfemur -6.92313 15.1465 32.2814
rtibia 6.14122
rfoot -11.4048 -17.7021
rtoes 2.24749
lfemur -12.9306 -21.87 3.43393
ltibia 7.30559
lfoot -6.2436 22.3025
ltoes -15.2382
